<?xml version="1.0" encoding="iso-8859-1"?>
<!-- Generator: Adobe Illustrator 18.0.0, SVG Export Plug-In . SVG Version: 6.00 Build 0)  -->
<!DOCTYPE svg PUBLIC "-//W3C//DTD SVG 1.1//EN" "http://www.w3.org/Graphics/SVG/1.1/DTD/svg11.dtd">
<svg version="1.1" id="Capa_1" xmlns="http://www.w3.org/2000/svg" xmlns:xlink="http://www.w3.org/1999/xlink" x="0px" y="0px"
	 viewBox="0 0 490.978 490.978" style="enable-background:new 0 0 490.978 490.978;" xml:space="preserve">
<g>
	<path d="M444.001,0H147.016c-7.18,0-13,5.82-13,13v100.032c-5.142-1.814-10.666-2.812-16.421-2.812
		c-27.291,0-49.494,22.203-49.494,49.493c0,18.521,10.233,34.69,25.336,43.175l-36.38,0c-12.727,0-23.08,10.354-23.08,23.079v95.718
		c0,11.964,9.152,21.831,20.823,22.971v116.351c0,16.325,13.282,29.607,29.607,29.607h5.813c12.27,0,22.785-7.824,27.359-19.501
		c4.395,11.447,14.3,19.005,26.26,19.457c1.019,0.256,2.078,0.407,3.177,0.407h296.985c7.18,0,13-5.82,13-13V13
		C457.001,5.82,451.181,0,444.001,0z M117.595,136.22c12.954,0,23.493,10.539,23.493,23.493c0,12.955-10.539,23.494-23.493,23.494
		c-12.955,0-23.494-10.54-23.494-23.494C94.101,146.759,104.64,136.22,117.595,136.22z M117.602,369.83c-0.003,0-0.005,0-0.008,0
		c-6.475,0-11.964,4.765-12.871,11.177c-0.083,0.582-8.263,58.359-10.793,78.37c-0.229,1.812-1.299,5.237-3.71,5.237h-5.813
		c-1.989,0-3.607-1.618-3.607-3.607V331.766c0-7.18-5.82-13-13-13h-7.823v-89.878l37.84,0l5.998,7.516l-9.546,56.76
		c-0.646,3.843,0.466,7.773,3.029,10.708l10.505,12.026c2.469,2.826,6.038,4.448,9.791,4.448c3.752,0,7.321-1.622,9.79-4.447
		l10.505-12.025c2.564-2.935,3.677-6.866,3.03-10.709l-9.546-56.761l5.999-7.516l37.84,0v89.878h-7.824c-7.18,0-13,5.82-13,13
		v129.241c0,1.989-1.618,3.607-3.607,3.607h-5.813c-2.398,0-3.479-3.453-3.716-5.279c-2.493-19.23-10.702-77.724-10.784-78.312
		C129.567,374.607,124.08,369.834,117.602,369.83z M431.001,464.978H180.114c0.175-1.3,0.273-2.624,0.273-3.971v-116.35
		c11.672-1.136,20.824-11.004,20.824-22.969v-95.723c-0.004-12.723-10.357-23.075-23.08-23.076l-36.38,0
		c15.103-8.484,25.336-24.653,25.336-43.175c0-9.311-2.588-18.026-7.076-25.473c0-0.026,0.004-0.052,0.004-0.079V26h270.985V464.978
		z"/>
	<path d="M192.514,148.646h79.495c7.18,0,13-5.82,13-13V60.052c0-7.18-5.82-13-13-13h-79.495c-7.18,0-13,5.82-13,13v75.594
		C179.514,142.826,185.334,148.646,192.514,148.646z M205.514,73.052h53.495v49.594h-53.495V73.052z"/>
	<path d="M314.514,148.646h79.495c7.18,0,13-5.82,13-13V60.052c0-7.18-5.82-13-13-13h-79.495c-7.18,0-13,5.82-13,13v75.594
		C301.514,142.826,307.334,148.646,314.514,148.646z M327.514,73.052h53.495v49.594h-53.495V73.052z"/>
	<path d="M314.508,273.696h79.495c7.18,0,13-5.82,13-13v-75.594c0-7.18-5.82-13-13-13h-79.495c-7.18,0-13,5.82-13,13v75.594
		C301.508,267.876,307.328,273.696,314.508,273.696z M327.508,198.102h53.495v49.594h-53.495V198.102z"/>
	<path d="M314.508,398.745h79.495c7.18,0,13-5.82,13-13v-75.594c0-7.18-5.82-13-13-13h-79.495c-7.18,0-13,5.82-13,13v75.594
		C301.508,392.925,307.328,398.745,314.508,398.745z M327.508,323.151h53.495v49.594h-53.495V323.151z"/>
</g>
<g>
</g>
<g>
</g>
<g>
</g>
<g>
</g>
<g>
</g>
<g>
</g>
<g>
</g>
<g>
</g>
<g>
</g>
<g>
</g>
<g>
</g>
<g>
</g>
<g>
</g>
<g>
</g>
<g>
</g>
</svg>
